<?xml version="1.0" encoding="UTF-8"?>
<svg version="1.1" xmlns="http://www.w3.org/2000/svg" width="1024" height="1024">
<path d="M0 0 C337.92 0 675.84 0 1024 0 C1024 337.92 1024 675.84 1024 1024 C686.08 1024 348.16 1024 0 1024 C0 686.08 0 348.16 0 0 Z " fill="#FEFEFE" transform="translate(0,0)"/>
<path d="M0 0 C6.06762473 1.98483774 12.07798163 4.09032365 18.0625 6.3125 C19.30229614 6.77088257 19.30229614 6.77088257 20.56713867 7.23852539 C26.28341224 9.35474882 31.98962366 11.49716126 37.69360352 13.64624023 C47.09913041 17.17846226 56.55315775 20.5802222 66 24 C66 27.92597011 65.62319573 29.27495498 63.98828125 32.67578125 C63.56232666 33.57925293 63.13637207 34.48272461 62.69750977 35.41357422 C62.24045654 36.37021973 61.78340332 37.32686523 61.3125 38.3125 C57.71822377 46.00577792 54.53369335 53.59781702 52.03515625 61.7109375 C51.26636059 64.1536769 50.44399675 66.50475987 49.52734375 68.890625 C35.75959624 105.14526009 35.61936463 145.26384009 42 183 C42.09462524 184.08414185 42.09462524 184.08414185 42.19116211 185.19018555 C43.53195548 188.19027648 45.9924195 188.78545 48.9140625 190.1015625 C50.15577964 190.67484725 51.39747814 191.24817238 52.63916016 191.8215332 C53.29072083 192.11581207 53.94228149 192.41009094 54.61358643 192.71328735 C66.06815063 197.9052932 76.95716934 203.36326419 87 211 C87.94875 211.7115625 88.8975 212.423125 89.875 213.15625 C101.2021698 222.03778086 110.89375132 232.35901597 119.5625 243.80859375 C120.18705078 244.60112549 120.18705078 244.60112549 120.82421875 245.40966797 C122 247 122 247 123.875 250.28515625 C127.34853504 254.33995761 132.62876425 254.31087567 137.63916016 254.73925781 C145.48606743 255.25710686 153.32534975 255.39377042 161.1875 255.375 C162.04817078 255.37445618 162.90884155 255.37391235 163.79559326 255.37335205 C175.75554276 255.33862756 187.19961425 254.94144426 198.77197266 251.6328125 C201.18348016 250.94788729 203.60849542 250.34789226 206.04296875 249.75 C230.5749272 243.49196386 252.84950787 232.20103137 273 217 C273.88816406 216.33871094 274.77632812 215.67742187 275.69140625 214.99609375 C296.37218444 198.86192939 314.51718626 177.68496079 326 154 C332.22716547 154.56634654 337.57100198 157.18714506 343.234375 159.65625 C344.30874817 160.11858032 345.38312134 160.58091064 346.49005127 161.05725098 C349.91275438 162.53195438 353.3313572 164.01591192 356.75 165.5 C359.06614896 166.49929446 361.38255248 167.49799915 363.69921875 168.49609375 C367.92438774 170.31873376 372.14873116 172.14322272 376.37011719 173.97460938 C377.21805847 174.3424353 378.06599976 174.71026123 378.93963623 175.0892334 C380.3077608 175.69400144 381.66208843 176.33104421 383 177 C382.43857605 182.4037055 381.11556236 186.88480307 379 191.875 C378.69094727 192.61041016 378.38189453 193.34582031 378.06347656 194.10351562 C366.52015012 220.98836908 349.66104387 244.40392797 329 265 C328.20722656 265.82757812 327.41445313 266.65515625 326.59765625 267.5078125 C319.58067805 274.75184239 312.07143987 280.96749725 304 287 C303.44473633 287.4213623 302.88947266 287.84272461 302.31738281 288.27685547 C257.39835445 322.25134798 195.56746666 342.60229336 139.1171875 336.57421875 C128.95561873 334.92776178 118.72649507 331.13451859 109.921875 325.72265625 C106.92656456 324.59637082 105.07106207 325.15204769 102 326 C99.22974541 327.31385339 96.5971676 328.85226755 93.9375 330.375 C82.26764501 336.79195786 69.85766985 341.19308351 57.38378906 345.75 C51.92126169 347.76790333 46.50869247 349.91036402 41.10131836 352.07104492 C36.21259094 354 36.21259094 354 34 354 C34 355.32 34 356.64 34 358 C35.29035156 358.11214844 36.58070313 358.22429687 37.91015625 358.33984375 C42.93609607 358.90417013 47.60888183 360.08672801 52.4375 361.5625 C53.30076904 361.82571045 54.16403809 362.0889209 55.0534668 362.36010742 C74.39239076 368.45904837 91.67210988 377.71582856 107 391 C107.6084375 391.4640625 108.216875 391.928125 108.84375 392.40625 C122.16189193 402.70896357 131.62125042 419.80176969 138.0625 435.0625 C138.36188477 435.76479736 138.66126953 436.46709473 138.96972656 437.19067383 C140.60944339 441.2767107 141.74490807 444.62366506 141 449 C139.57760304 451.54492918 137.81272611 453.71281512 135.9375 455.9375 C135.43452393 456.5550415 134.93154785 457.17258301 134.41333008 457.80883789 C131.31057163 461.57323955 128.08609496 465.14238297 124.5390625 468.49609375 C122.91858621 470.07955408 121.50071414 471.75030099 120.0625 473.5 C87.01549618 512.53189428 17.96045978 539.00043522 -32.12890625 543.6171875 C-33.7522159 543.74963944 -35.37579221 543.87905863 -37 544 C-35.64733483 540.25846135 -33.95265027 537.25070207 -31.65625 534.0078125 C-30.99246338 533.06405762 -30.32867676 532.12030273 -29.64477539 531.14794922 C-28.93699951 530.15037598 -28.22922363 529.15280273 -27.5 528.125 C-26.02916343 526.02659132 -24.55910902 523.92763418 -23.08984375 521.828125 C-19.39101825 516.55631292 -19.39101825 516.55631292 -17.54345703 513.92773438 C-10.44198164 503.76581416 -4.25621141 493.06827069 1.93725586 482.33935547 C5.75043901 475.74585035 9.65191683 469.26049225 14 463 C12.845 462.67 11.69 462.34 10.5 462 C1.35194831 458.94112022 -7.21262642 454.0648083 -15.671875 449.4765625 C-16.43693359 449.0635791 -17.20199219 448.6505957 -17.99023438 448.22509766 C-19.46988736 447.42292624 -20.94535629 446.61297685 -22.41601562 445.79443359 C-25.95321013 443.87237704 -27.89035973 443 -32 443 C-34.44061118 444.46556309 -36.6981749 445.96463918 -39 447.625 C-40.04353638 448.36000732 -40.04353638 448.36000732 -41.1081543 449.10986328 C-42.61824367 450.17426251 -44.12554439 451.24262653 -45.63037109 452.31445312 C-49.67473371 455.19125917 -53.74569431 458.03005792 -57.8125 460.875 C-58.65135742 461.46337646 -59.49021484 462.05175293 -60.35449219 462.65795898 C-67.69983306 467.80629353 -75.09525965 472.87877813 -82.5078125 477.9296875 C-85.30490498 479.83674207 -88.0923913 481.75596968 -90.8671875 483.6953125 C-107.40085262 495.23102786 -124.44048279 506.04790512 -141.80761719 516.28295898 C-142.56848633 516.73227783 -143.32935547 517.18159668 -144.11328125 517.64453125 C-145.10001831 518.22231323 -145.10001831 518.22231323 -146.10668945 518.81176758 C-148.08468969 520.00899332 -148.08468969 520.00899332 -150.11791992 521.6472168 C-152 523 -152 523 -154 523 C-154.1988822 515.96601778 -153.44493699 509.44188339 -152.2890625 502.51171875 C-151.9174695 500.19223426 -151.54811145 497.87239093 -151.18066406 495.55224609 C-150.98653931 494.32681091 -150.79241455 493.10137573 -150.59240723 491.83880615 C-149.56156279 485.15892148 -148.63496943 478.46484113 -147.7109375 471.76953125 C-147.61532784 471.07832058 -147.51971817 470.38710991 -147.42121124 469.67495346 C-146.8351037 465.43612704 -146.2519808 461.19689516 -145.66986084 456.95751953 C-145.27358576 454.0747434 -144.87551882 451.19221596 -144.47737694 448.30969715 C-142.98168382 437.48686412 -142.98168382 437.48686412 -141.50067139 426.66201782 C-141.14939041 424.09267349 -140.79235584 421.52457451 -140.42950439 418.95687866 C-140.24408617 417.62190042 -140.05876044 416.28690932 -139.87353516 414.9519043 C-139.70616852 413.76259811 -139.53880188 412.57329193 -139.36636353 411.34794617 C-138.67028738 404.98698147 -138.93626878 401.33595598 -142.0625 395.6875 C-142.40611572 395.06069336 -142.74973145 394.43388672 -143.10375977 393.78808594 C-146.08442714 388.43335199 -149.28495158 383.21313486 -152.47290039 377.98022461 C-168.80444641 351.12764782 -181.33482761 325.43767292 -173.9765625 293.42578125 C-172.44183274 288.04194925 -170.43733628 283.03484037 -168 278 C-167.35417969 276.64841797 -167.35417969 276.64841797 -166.6953125 275.26953125 C-146.91363251 236.54437806 -103.04565003 215.89399829 -63.75244141 202.87939453 C-48.48028873 198 -48.48028873 198 -44 198 C-44.16113281 196.73027344 -44.32226562 195.46054687 -44.48828125 194.15234375 C-51.20200799 126.45658933 -34.06881778 58.39218177 0 0 Z " fill="#012CE5" transform="translate(345,328)"/>
<path d="M0 0 C14.33984224 3.07449973 35.75993111 12.72414007 44.84765625 24.3671875 C53.31802903 37.54332294 52.48861069 53.74473381 49.3125 68.5625 C47.73747145 75.52924755 45.82794509 82.4051738 43.86987305 89.27246094 C42.31402797 94.75513552 40.90673848 100.2592435 39.625 105.8125 C39.44517578 106.55959229 39.26535156 107.30668457 39.08007812 108.07641602 C38.18634118 112.05582536 37.5157874 115.15748379 39 119 C41.27676156 120.42548976 43.24944926 121.42003788 45.70703125 122.42578125 C46.4054715 122.72977844 47.10391174 123.03377563 47.82351685 123.34698486 C50.1459658 124.3532448 52.47890689 125.33239502 54.8125 126.3125 C56.46188391 127.02199959 58.11039049 127.73354184 59.75805664 128.44702148 C63.17231187 129.92369879 66.59016533 131.39154525 70.01074219 132.85351562 C74.53860271 134.79430658 79.04401001 136.78140628 83.5390625 138.796875 C84.22612274 139.10487534 84.91318298 139.41287567 85.62106323 139.73020935 C87.01795885 140.35670879 88.41479902 140.98333189 89.81158447 141.6100769 C106.59473409 149.12903008 123.47478818 156.42442724 140.35253906 163.72775269 C157.2029198 171.0213875 174.00707815 178.41161696 190.77578735 185.89096069 C203.02038067 191.3520917 215.28529843 196.75488661 227.59887695 202.05883789 C238.63909402 206.82239871 249.63165238 211.69192013 260.625 216.5625 C272.38938631 221.77410918 284.15881426 226.96477565 296 232 C307.60867915 236.93861499 319.15204217 242.0181686 330.6875 247.125 C331.60219055 247.52989655 332.5168811 247.93479309 333.45928955 248.35195923 C337.18774965 250.00248456 340.91617371 251.65309127 344.64453125 253.30384827 C371.25918473 265.08447233 397.93011503 276.73311372 424.65478516 288.2618103 C431.43941541 291.18870479 438.22038331 294.12401097 445 297.0625 C446.16072021 297.56539551 447.32144043 298.06829102 448.51733398 298.58642578 C455.65357336 301.67894017 462.78768971 304.7763207 469.92073059 307.87620544 C475.53021444 310.31393131 481.1400299 312.75089338 486.75 315.1875 C487.88321686 315.67971039 489.01643372 316.17192078 490.18399048 316.67904663 C507.96131781 324.39861748 525.76028016 332.06626438 543.58300781 339.68041992 C544.41413589 340.03566238 545.24526398 340.39090485 546.10157776 340.75691223 C547.64179421 341.415063 549.18225505 342.07264227 550.7230072 342.72953796 C555.77847258 344.88923629 555.77847258 344.88923629 558 346 C558.08636719 345.071875 558.17273438 344.14375 558.26171875 343.1875 C561.32609329 322.05972251 574.30108161 297.2378218 588 281 C588.70511719 280.14664062 589.41023437 279.29328125 590.13671875 278.4140625 C599.25474079 267.81615206 610.29959228 257.95101159 624.71484375 256.3515625 C636.9764339 255.54814727 645.8308095 258.34462576 656 265 C656.67595215 265.43924805 657.3519043 265.87849609 658.04833984 266.33105469 C666.57191693 271.96295294 674.66431759 278.20063269 682.75 284.4375 C683.50071777 285.0164502 684.25143555 285.59540039 685.02490234 286.19189453 C689.92683283 290.02581287 694.51694891 293.77542337 698 299 C698.37224497 304.10192304 697.5736401 308.6045494 696.2421875 313.49609375 C696.05864716 314.19819977 695.87510681 314.90030579 695.68600464 315.62368774 C695.09006585 317.89707461 694.48256279 320.16719504 693.875 322.4375 C693.45901695 324.01659733 693.04398532 325.59594558 692.62988281 327.17553711 C692.00728001 329.5501694 691.38414379 331.9246422 690.7578125 334.29829407 C689.02451872 340.87084144 687.37437436 347.46221483 685.75 354.0625 C683.54687422 362.94340931 681.18542374 371.76616933 678.68603516 380.56787109 C677.93034245 383.24694964 677.18898498 385.92976228 676.44921875 388.61328125 C666.34550022 425.18377036 654.77036561 460.94154478 640.56201172 496.12255859 C639.07719288 499.80007636 637.61877388 503.48779039 636.16015625 507.17578125 C635.2956742 509.32608556 634.4298759 511.47586137 633.5625 513.625 C633.18609375 514.5838208 632.8096875 515.5426416 632.421875 516.53051758 C630.18038677 521.99711531 627.82231682 527.34305806 623 531 C618.32680946 532.12379106 615.54203777 530.95311867 611.53125 528.6484375 C609.84431228 527.57258952 608.16774176 526.48037105 606.5 525.375 C604.63892062 524.17958759 602.77690641 522.98562958 600.9140625 521.79296875 C599.46628418 520.85783447 599.46628418 520.85783447 597.98925781 519.90380859 C593.99164041 517.35779255 589.93277804 514.92068568 585.86767578 512.484375 C581.2213279 509.69459523 576.60391463 506.85918457 572 504 C571.04383789 503.40711182 571.04383789 503.40711182 570.06835938 502.80224609 C553.87310267 492.56734336 545.31071417 474.15265566 541 456 C535.38721083 428.60958885 539.42224431 398.97962696 548.765625 372.8828125 C550.13609243 368.94521584 550.61057862 365.14455609 551 361 C550.31550781 360.74476563 549.63101563 360.48953125 548.92578125 360.2265625 C545.55857376 358.81494281 542.38807424 357.12130333 539.1875 355.375 C523.55845525 346.96111689 507.52597273 339.35399439 491.53253174 331.66423035 C487.54725573 329.74733514 483.56707964 327.82026153 479.58984375 325.88671875 C466.17559349 319.38060422 452.63436363 313.19496871 439.015625 307.1328125 C432.88582753 304.40274856 426.78138342 301.62163817 420.6875 298.8125 C405.63556781 291.88266947 390.51154031 285.11197222 375.39562988 278.32318115 C371.28967393 276.47904602 367.18455071 274.63310389 363.08129883 272.78295898 C351.74978537 267.67458446 340.3976885 262.61407223 329.03503418 257.57537842 C315.08524433 251.38866127 301.14564091 245.18244032 287.25 238.875 C265.30956749 228.92266164 243.21973135 219.30192241 221.12109375 209.70703125 C217.89309058 208.3050063 214.6652325 206.90264796 211.4375 205.5 C210.24524307 204.98203857 210.24524307 204.98203857 209.02890015 204.45361328 C195.5485412 198.59281039 182.13910151 192.58227599 168.74523926 186.52682495 C157.51576107 181.45217695 146.25303299 176.48671705 134.90966797 171.67089844 C119.73705322 165.21418797 104.68067446 158.49149501 89.60604858 151.81011963 C82.72837563 148.76266986 75.84562089 145.72688684 68.9609375 142.6953125 C66.02567444 141.40190194 63.09047942 140.10833712 60.15530396 138.81472778 C58.27804333 137.98781254 56.40050542 137.16152646 54.52267456 136.33590698 C51.906243 135.18538075 49.29090685 134.03239719 46.67578125 132.87890625 C45.53168289 132.3769725 45.53168289 132.3769725 44.36447144 131.86489868 C39.49980842 129.71564535 34.74118669 127.40992748 30 125 C29.76023437 126.16402344 29.52046875 127.32804687 29.2734375 128.52734375 C27.54276425 136.31233179 25.23175592 143.95153218 23.03710938 151.61547852 C20.69366124 159.81264846 18.46547718 168.01991141 16.42958069 176.29910278 C14.96389968 182.22765371 13.30320006 188.08477648 11.5625 193.9375 C11.25884521 194.96834717 10.95519043 195.99919434 10.64233398 197.0612793 C10.03764572 199.11319133 9.43165722 201.16472075 8.82421875 203.21582031 C7.92233808 206.26233903 7.02771226 209.31091954 6.13574219 212.36035156 C5.75105447 213.67038692 5.36364807 214.97962678 4.97363281 216.28808594 C3.68888165 220.60395114 2.46304667 224.93246067 1.265625 229.2734375 C-2.69693887 243.41764529 -7.53079656 256.51782254 -13.93701172 269.72949219 C-15.36930284 272.78881866 -16.55479758 275.90347623 -17.75 279.0625 C-19.71914197 283.84371488 -21.42119149 286.47698306 -26 289 C-30.56398688 288.63457819 -34.20182453 287.19761293 -38.32421875 285.26953125 C-39.51853516 284.71330078 -40.71285156 284.15707031 -41.94335938 283.58398438 C-42.55977295 283.29225342 -43.17618652 283.00052246 -43.8112793 282.69995117 C-45.66142492 281.8248335 -47.51661733 280.96130271 -49.37304688 280.09960938 C-72.10666161 269.48989299 -72.10666161 269.48989299 -74.48999023 263.28613281 C-76.89366853 252.5115787 -73.59855361 242.19290773 -70.75 231.875 C-70.11912462 229.52501898 -69.49373646 227.17362574 -68.86894226 224.82202148 C-68.46192096 223.29051385 -68.05334413 221.7594187 -67.6431427 220.22875977 C-65.86763817 213.5840148 -64.33898545 206.90746386 -62.94921875 200.171875 C-62.01458906 195.85270219 -60.83716622 191.60045875 -59.68595886 187.3348999 C-58.25446601 182.00794638 -56.89540074 176.66491986 -55.5625 171.3125 C-55.35337479 170.47277649 -55.14424957 169.63305298 -54.92878723 168.7678833 C-54.28495909 166.17881117 -53.64226395 163.58946057 -53 161 C-52.14730555 157.56213206 -51.2928845 154.1246995 -50.4375 150.6875 C-50.25195557 149.93702393 -50.06641113 149.18654785 -49.87524414 148.41333008 C-48.66090023 143.53450331 -47.38270978 138.67530321 -46.07983398 133.81933594 C-44.06412674 126.30126614 -42.16128281 118.75726851 -40.28515625 111.203125 C-39.94426982 109.83514924 -39.60323742 108.46720984 -39.2620697 107.0993042 C-38.01537455 102.09938755 -36.77127228 97.0988266 -35.52716064 92.0982666 C-34.30204302 87.17454057 -33.07561888 82.25114228 -31.84765625 77.328125 C-31.59306578 76.3068901 -31.59306578 76.3068901 -31.33333206 75.26502419 C-29.17206043 66.60136563 -26.95417577 57.9555301 -24.65065002 49.32859802 C-23.31919884 44.30820595 -22.10095644 39.26884756 -20.9375 34.20703125 C-20.77531479 33.50695953 -20.61312958 32.80688782 -20.44602966 32.08560181 C-19.79615253 29.27844168 -19.14672321 26.47148443 -18.52050781 23.65893555 C-12.84212328 -1.73542206 -12.84212328 -1.73542206 0 0 Z " fill="#020974" transform="translate(208,140)"/>
<path d="M0 0 C11.72642666 8.23535308 20.43611802 19.82578449 24.25390625 33.7734375 C26.24655046 46.1303381 26.21927023 59.79602324 21.875 71.625 C21.52308594 72.60210937 21.17117188 73.57921875 20.80859375 74.5859375 C11.51552745 98.44734205 -6.88702293 118.81239394 -30.25976562 129.61132812 C-41.41268782 134.34441976 -51.89335376 137.00983795 -64 136.9375 C-64.97163086 136.93258545 -65.94326172 136.9276709 -66.94433594 136.92260742 C-73.72696033 136.81153825 -79.81221152 136.2768006 -86.125 133.625 C-86.94484375 133.29628906 -87.7646875 132.96757813 -88.609375 132.62890625 C-103.50999332 125.94213809 -113.11746976 114.47507475 -119.125 99.625 C-119.47691406 98.77808594 -119.82882812 97.93117188 -120.19140625 97.05859375 C-127.08467532 79.08994676 -123.11109662 58.46041155 -115.52734375 41.42578125 C-110.98033694 32.34443338 -105.13431714 24.92637202 -98.125 17.625 C-97.135 16.55765625 -97.135 16.55765625 -96.125 15.46875 C-71.71799403 -10.11924013 -30.8127918 -18.33592946 0 0 Z " fill="#032DE2" transform="translate(528.125,401.375)"/>
<path d="M0 0 C3.70181042 0.668834 6.55043776 1.89529616 9.92578125 3.5625 C11.237996 4.20370908 12.55050865 4.8443088 13.86328125 5.484375 C14.5490625 5.82275391 15.23484375 6.16113281 15.94140625 6.50976562 C18.21254195 7.61061288 20.50180474 8.66175693 22.80078125 9.703125 C23.57188232 10.05503906 24.3429834 10.40695313 25.13745117 10.76953125 C26.64040649 11.45454406 28.1457236 12.13440299 29.65356445 12.80859375 C33.14287375 14.41948675 34.93658619 15.29745741 37.11328125 18.5625 C38.31870072 26.51151815 36.01048035 34.2559332 33.98828125 41.875 C33.67205811 43.10323486 33.35583496 44.33146973 33.0300293 45.59692383 C30.88045521 53.87184246 28.58081592 62.0994394 26.17773438 70.30395508 C24.25060489 76.92359291 22.64109359 83.57821503 21.16796875 90.3125 C20.35406019 93.80584721 19.31256025 97.20318376 18.23828125 100.625 C16.17618478 107.22675097 14.42554515 113.88453273 12.73577881 120.59005737 C10.29478368 130.26793975 7.79210584 139.91971879 4.98828125 149.5 C2.53549021 157.88912443 0.38435228 166.33433232 -1.70532227 174.82055664 C-3.56089469 182.33236688 -5.55223506 189.79312199 -7.671875 197.234375 C-8.53685427 200.27609099 -9.34856887 203.32711591 -10.1328125 206.390625 C-14.93666839 224.92913309 -14.93666839 224.92913309 -21.88671875 229.5625 C-28.38262079 230.10289761 -33.45934656 227.73920471 -39.38671875 225.375 C-40.40636719 224.98763672 -41.42601563 224.60027344 -42.4765625 224.20117188 C-48.0991232 221.98943636 -52.62898686 219.89829031 -56.88671875 215.5625 C-59.92952991 206.43406653 -56.55753684 197.07967228 -54.26171875 188.125 C-53.70429973 185.90152122 -53.15068201 183.67711707 -52.59721375 181.45265198 C-52.22512977 179.95824336 -51.8518488 178.46413227 -51.47737122 176.97032166 C-49.83703032 170.41680139 -48.31557495 163.83896157 -46.82421875 157.25 C-44.51961701 147.13501039 -42.0331557 137.07296164 -39.48974609 127.015625 C-37.54228487 119.28145245 -35.71045486 111.52849391 -33.94921875 103.75 C-28.61890172 80.332761 -22.35772591 57.13467175 -15.85253906 34.01953125 C-14.88579125 30.55918014 -13.94366668 27.09276519 -13.00390625 23.625 C-12.4031832 21.45810044 -11.80165977 19.29142256 -11.19921875 17.125 C-10.93810303 16.14217041 -10.6769873 15.15934082 -10.40795898 14.14672852 C-6.77985978 1.32110935 -6.77985978 1.32110935 0 0 Z " fill="#010873" transform="translate(148.88671875,139.4375)"/>
<path d="M0 0 C5.71853597 0.91463616 10.11212129 3.53276166 15.125 6.3125 C16.03121094 6.79912109 16.93742188 7.28574219 17.87109375 7.78710938 C18.74121094 8.26599609 19.61132812 8.74488281 20.5078125 9.23828125 C21.29816895 9.67180908 22.08852539 10.10533691 22.90283203 10.55200195 C25.23752262 12.16399845 26.55617893 13.56011615 28 16 C28.99244628 21.8109346 27.67140583 27.78422198 26.3125 33.4375 C26.04457642 34.59584351 26.04457642 34.59584351 25.77124023 35.77758789 C24.13348893 42.72483461 22.23153683 49.59332548 20.27734375 56.45703125 C19.20776284 60.22444985 18.20503523 64.00562059 17.2265625 67.79760742 C7.88646482 103.93362659 -4.26008843 139.30714167 -18 174 C-18.4213623 175.1039209 -18.84272461 176.2078418 -19.27685547 177.34521484 C-19.6998291 178.42109863 -20.12280273 179.49698242 -20.55859375 180.60546875 C-20.93169678 181.5699292 -21.3047998 182.53438965 -21.68920898 183.52807617 C-23.1360378 186.25654363 -24.33927203 187.46559443 -27 189 C-31.88611437 189.10858032 -34.24946473 187.19422066 -37.7265625 183.953125 C-41.35541815 180.83555142 -45.33093494 178.19719765 -49.2890625 175.51586914 C-53.89234398 172.32296806 -53.89234398 172.32296806 -55 169 C-53.83065094 166.32588333 -52.58601162 163.777282 -51.25 161.1875 C-40.1888188 138.745349 -32.91171377 114.29837045 -25.16015625 90.54980469 C-24.1775842 87.54336579 -23.18459962 84.54069995 -22.1875 81.5390625 C-18.41786695 70.05758058 -15.51404146 58.40011294 -12.65527344 46.66308594 C-11.20023994 40.74970837 -9.60086102 34.87529678 -8 29 C-7.49738511 27.14844041 -6.99478188 25.29687766 -6.4921875 23.4453125 C-2.05161783 7.11227513 -2.05161783 7.11227513 0 0 Z " fill="#020872" transform="translate(903,478)"/>
<path d="M0 0 C337.92 0 675.84 0 1024 0 C1024 0.66 1024 1.32 1024 2 C686.74 2 349.48 2 2 2 C2 338.93 2 675.86 2 1023 C339.26 1023 676.52 1023 1024 1023 C1024 1023.33 1024 1023.66 1024 1024 C686.08 1024 348.16 1024 0 1024 C0 686.08 0 348.16 0 0 Z " fill="#E8E8E8" transform="translate(0,0)"/>
<path d="M0 0 C6.23345489 3.26315088 10.65652759 7.54073532 13.453125 14.09375 C13.86037937 17.18852121 13.77757504 20.28728838 13.765625 23.40625 C13.78173828 24.23576172 13.79785156 25.06527344 13.81445312 25.91992188 C13.81876547 31.38366611 13.12429359 35.29072238 10.453125 40.09375 C7.828125 41.09375 7.828125 41.09375 5.453125 41.09375 C5.123125 40.76375 4.793125 40.43375 4.453125 40.09375 C4.5975 38.876875 4.741875 37.66 4.890625 36.40625 C6.58631871 24.32998381 6.58631871 24.32998381 3.703125 12.84375 C0.82886668 9.33076761 -0.96597596 8.29480142 -5.46484375 7.72265625 C-15.83094761 7.51211412 -21.4633924 9.97885538 -28.921875 17.03125 C-31.92805256 20.1871376 -33.93211496 23.0568499 -35.546875 27.09375 C-37.196875 27.09375 -38.846875 27.09375 -40.546875 27.09375 C-41.39436257 24.21834576 -41.80234165 22.67679082 -40.578125 19.8828125 C-31.65563667 7.2729693 -16.74786688 -5.95936367 0 0 Z " fill="#F2F2F8" transform="translate(477.546875,482.90625)"/>
<path d="M0 0 C3.62416894 1.64734952 6.12851416 3.45402683 8 7 C8.54500097 11.99584223 8.09938694 15.01507393 5 19 C0.73278189 22.73381584 -3.25265278 23.39534102 -8.7734375 23.359375 C-12.3367776 22.78423941 -13.88319886 20.7783015 -16 18 C-17.60127074 14.79745853 -17.40701607 12.54685436 -17 9 C-12.78114317 2.15638208 -8.11565594 -0.71189964 0 0 Z " fill="#F8F8FA" transform="translate(461,437)"/>
<path d="M0 0 C2.60847629 1.49745861 4.87028902 2.87028902 7 5 C7.54061124 9.78573887 7.70334561 13.74960781 5.3125 18 C1.97162429 20.88940602 -0.58165064 21.81893412 -4.9375 22.375 C-8.84396884 21.89665688 -10.9409418 20.41879021 -14 18 C-15.73125121 14.53749757 -15.47815224 10.78591771 -15 7 C-11.26462549 0.72990708 -7.14896407 -0.73954801 0 0 Z " fill="#F6F7FA" transform="translate(515,452)"/>
<path d="M0 0 C8.38124744 2.59056739 14.11144054 11.82319543 18.4375 19.0625 C21.34383168 24.79800412 22.99762938 29.62101216 22.4375 36.0625 C20.4575 36.0625 18.4775 36.0625 16.4375 36.0625 C16.03660156 35.03511719 15.63570312 34.00773437 15.22265625 32.94921875 C11.2905136 23.23458248 6.95622542 13.78178559 -1.8125 7.43359375 C-2.39 6.98113281 -2.9675 6.52867187 -3.5625 6.0625 C-3.875 3.4375 -3.875 3.4375 -3.5625 1.0625 C-2.5625 0.0625 -2.5625 0.0625 0 0 Z " fill="#F2F3F6" transform="translate(517.5625,423.9375)"/>
<path d="M0 0 C1.63001953 0.01353516 1.63001953 0.01353516 3.29296875 0.02734375 C4.12441406 0.03894531 4.95585937 0.05054688 5.8125 0.0625 C6.19468767 1.71864657 6.52645102 3.38707024 6.8125 5.0625 C5.20402111 6.67097889 3.21745392 6.49526768 1 6.8125 C-10.5347682 8.8445317 -20.10929754 14.50773954 -29.828125 20.76171875 C-32.1875 22.0625 -32.1875 22.0625 -34.5 21.75 C-35.056875 21.523125 -35.61375 21.29625 -36.1875 21.0625 C-35.88766302 17.85313383 -35.51395247 16.39153312 -33.2109375 14.0703125 C-23.67041099 7.2878143 -11.99683556 -0.12899823 0 0 Z " fill="#F3F3F8" transform="translate(472.1875,412.9375)"/>
<path d="M0 0 C1.5625 1 1.5625 1 3 3 C2.54141435 8.80875158 1.32288848 14.35074803 -0.0625 20 C-0.24876953 20.77472656 -0.43503906 21.54945313 -0.62695312 22.34765625 C-1.08076178 24.23270759 -1.53982492 26.1164927 -2 28 C-2.66 27.01 -3.32 26.02 -4 25 C-4.66 25 -5.32 25 -6 25 C-5.37768893 22.14522349 -4.75223464 19.29119519 -4.125 16.4375 C-3.95097656 15.63763672 -3.77695313 14.83777344 -3.59765625 14.01367188 C-2.55556397 9.28566059 -1.38268277 4.64008408 0 0 Z " fill="#E1E1EB" transform="translate(185,168)"/>
<path d="M0 0 C0 0.99 0 1.98 0 3 C-2.19512421 4.77926847 -4.35073414 6.36642765 -6.6875 7.9375 C-15.24292278 13.74636154 -15.24292278 13.74636154 -22.5 21.0625 C-25.06517648 24.0580002 -27.30298595 26.41556541 -31 28 C-31.66 27.67 -32.32 27.34 -33 27 C-23.12956394 16.58568277 -12.45640414 7.2247144 0 0 Z " fill="#0F2FDF" transform="translate(224,557)"/>
<path d="M0 0 C0.75 1.703125 0.75 1.703125 1 4 C-0.625 6.296875 -0.625 6.296875 -3 8.75 C-4.25103516 10.06677734 -4.25103516 10.06677734 -5.52734375 11.41015625 C-6.34332031 12.26480469 -7.15929687 13.11945312 -8 14 C-9.19531351 15.38914814 -10.38364312 16.78435945 -11.5625 18.1875 C-15.00780266 22.13072519 -18.68771662 26.00015069 -23 29 C-23.99 29 -24.98 29 -26 29 C-21.88925293 24.08088955 -17.59217311 19.5299197 -13 15.0625 C-8.17816198 10.31645718 -3.81768491 5.61424251 0 0 Z " fill="#1939E0" transform="translate(653,510)"/>
<path d="M0 0 C4.33518075 6.50277112 4.3553136 13.09716837 4.3125 20.6875 C4.30976074 21.66050049 4.30702148 22.63350098 4.30419922 23.63598633 C4.18437364 31.89086672 3.69893747 39.95159379 -1 47 C-0.125 39.25 -0.125 39.25 1 37 C1.097077 35.17000698 1.13076347 33.33647118 1.1328125 31.50390625 C1.13410156 30.38693359 1.13539063 29.26996094 1.13671875 28.11914062 C1.13285156 26.94544922 1.12898437 25.77175781 1.125 24.5625 C1.12886719 23.42361328 1.13273438 22.28472656 1.13671875 21.11132812 C1.128618 14.01911983 0.78314132 7.04916382 0 0 Z " fill="#1230CF" transform="translate(549,429)"/>
<path d="M0 0 C1.7578125 0.07421875 1.7578125 0.07421875 4 1 C5.50564343 3.28208308 6.6979059 5.37248202 7.875 7.8125 C8.20757813 8.44220703 8.54015625 9.07191406 8.8828125 9.72070312 C11.1984199 14.39607146 11.1984199 14.39607146 10.1953125 17.44921875 C9.80085937 17.96097656 9.40640625 18.47273438 9 19 C7.39644899 15.49223216 6.77963136 12.85645121 7 9 C6.01 8.67 5.02 8.34 4 8 C2 5 2 5 2 2 C1.34 2 0.68 2 0 2 C0 1.34 0 0.68 0 0 Z " fill="#1938D2" transform="translate(522,440)"/>
<path d="M0 0 C7.42989797 6.96552935 13.42908224 14.90211562 18 24 C14.47046282 22.82348761 14.21263506 22.11622456 12.4375 19 C10.78625452 15.91497173 10.78625452 15.91497173 8 14 C7.01798461 12.26510614 6.03854155 10.52855946 5.0859375 8.77734375 C3.96896433 6.79291911 3.96896433 6.79291911 1.75 4.75 C1.1725 4.1725 0.595 3.595 0 3 C0 2.01 0 1.02 0 0 Z " fill="#1837D8" transform="translate(457,724)"/>
<path d="M0 0 C-1.60525215 4.1736556 -4.53226172 7.26141941 -8 10 C-10.875 10.875 -10.875 10.875 -13 11 C-3.73033708 0 -3.73033708 0 0 0 Z " fill="#1937E2" transform="translate(204,574)"/>
<path d="M0 0 C0.99 0 1.98 0 3 0 C1.56312329 3.01812859 -0.08703312 5.77973683 -1.9375 8.5625 C-2.44152344 9.32691406 -2.94554687 10.09132813 -3.46484375 10.87890625 C-4.85172947 12.79513767 -6.27564024 14.38888178 -8 16 C-8.66 15.67 -9.32 15.34 -10 15 C-6.66666667 10 -3.33333333 5 0 0 Z " fill="#102EDB" transform="translate(321,851)"/>
<path d="M0 0 C-3.12254943 1.33912585 -6.24842358 2.67030658 -9.375 4 C-10.26445313 4.3815625 -11.15390625 4.763125 -12.0703125 5.15625 C-12.92109375 5.5171875 -13.771875 5.878125 -14.6484375 6.25 C-15.82672119 6.75273438 -15.82672119 6.75273438 -17.02880859 7.265625 C-19 8 -19 8 -21 8 C-21 7.34 -21 6.68 -21 6 C-18.91870896 5.01649975 -16.83488641 4.03835542 -14.75 3.0625 C-13.58984375 2.51722656 -12.4296875 1.97195313 -11.234375 1.41015625 C-6.8022357 -0.52221366 -4.63967986 -1.26804301 0 0 Z " fill="#1230D7" transform="translate(606,641)"/>
<path d="M0 0 C0.66 0 1.32 0 2 0 C0.65143934 4.89640951 -0.89532527 9.65813562 -2.625 14.4375 C-3.07101562 15.67371094 -3.51703125 16.90992188 -3.9765625 18.18359375 C-4.31429687 19.11300781 -4.65203125 20.04242188 -5 21 C-5.66 21 -6.32 21 -7 21 C-5.180206 13.74839665 -2.93841629 6.87619244 0 0 Z " fill="#1E207F" transform="translate(774,460)"/>
<path d="M0 0 C1.125 1.625 1.125 1.625 2 4 C1.25 6.625 1.25 6.625 0 10 C-0.74521149 13.31867515 -1.3787994 16.65609041 -2 20 C-2.66 19.67 -3.32 19.34 -4 19 C-3.52342708 16.39533418 -3.04385281 13.79128286 -2.5625 11.1875 C-2.42779297 10.44951172 -2.29308594 9.71152344 -2.15429688 8.95117188 C-1.58580263 5.88684924 -0.98690349 2.96071047 0 0 Z " fill="#1F3EE1" transform="translate(311,407)"/>
<path d="M0 0 C0.66 0 1.32 0 2 0 C1.54857225 1.77260631 1.08859477 3.5430368 0.625 5.3125 C0.36976563 6.29863281 0.11453125 7.28476562 -0.1484375 8.30078125 C-1 11 -1 11 -3 14 C-3.33 13.67 -3.66 13.34 -4 13 C-3.60918594 8.01712068 -2.44012039 4.34977982 0 0 Z " fill="#0E0F66" transform="translate(907,583)"/>
<path d="M0 0 C0 0.66 0 1.32 0 2 C-1.98 2.33 -3.96 2.66 -6 3 C-6 3.66 -6 4.32 -6 5 C-12.96428571 8.34821429 -12.96428571 8.34821429 -17 7 C-15.06374902 6.01836578 -13.12595461 5.03977546 -11.1875 4.0625 C-10.10855469 3.51722656 -9.02960938 2.97195313 -7.91796875 2.41015625 C-2.93074792 0 -2.93074792 0 0 0 Z " fill="#1836D8" transform="translate(466,421)"/>
<path d="M0 0 C6.26418531 1.48362284 10.91513505 5.24162156 16 9 C13 10 13 10 11.02734375 9.0390625 C10.33769531 8.57242187 9.64804687 8.10578125 8.9375 7.625 C8.24527344 7.16351563 7.55304687 6.70203125 6.83984375 6.2265625 C6.23269531 5.82179688 5.62554688 5.41703125 5 5 C4.34 4.67 3.68 4.34 3 4 C3 3.34 3 2.68 3 2 C2.01 2 1.02 2 0 2 C0 1.34 0 0.68 0 0 Z " fill="#1630D1" transform="translate(518,397)"/>
<path d="M0 0 C0 0.66 0 1.32 0 2 C-1.79143207 2.9795958 -3.58315304 3.9586633 -5.375 4.9375 C-6.37273437 5.48277344 -7.37046875 6.02804687 -8.3984375 6.58984375 C-9.92070346 7.4149759 -11.45128783 8.22564391 -13 9 C-12.7734375 7.171875 -12.7734375 7.171875 -12 5 C-10.0390625 3.515625 -10.0390625 3.515625 -7.625 2.25 C-6.83351563 1.82203125 -6.04203125 1.3940625 -5.2265625 0.953125 C-3 0 -3 0 0 0 Z " fill="#112FD8" transform="translate(454,417)"/>
<path d="M0 0 C0 0.33 0 0.66 0 1 C-1.0725 1.226875 -2.145 1.45375 -3.25 1.6875 C-7.43693944 3.15292881 -8.60710491 4.36634449 -11 8 C-11.66 8.99 -12.32 9.98 -13 11 C-13.33 10.01 -13.66 9.02 -14 8 C-10.18848959 1.32985679 -7.63560303 -0.28813596 0 0 Z " fill="#252580" transform="translate(208,140)"/>
<path d="M0 0 C0.99 0.33 1.98 0.66 3 1 C1.88407791 3.00507927 0.75701288 5.00396096 -0.375 7 C-1.31472656 8.670625 -1.31472656 8.670625 -2.2734375 10.375 C-2.84320313 11.24125 -3.41296875 12.1075 -4 13 C-4.66 13 -5.32 13 -6 13 C-4.58707905 8.1725201 -2.57025846 4.2837641 0 0 Z " fill="#1737DF" transform="translate(418,433)"/>
<path d="M0 0 C0.66 0 1.32 0 2 0 C1.39305845 3.15330554 0.3583335 5.18888867 -1.5625 7.75 C-2.24505859 8.67039062 -2.24505859 8.67039062 -2.94140625 9.609375 C-3.46541016 10.29773438 -3.46541016 10.29773438 -4 11 C-4.99 10.67 -5.98 10.34 -7 10 C-5.88321917 8.3278148 -4.75633648 6.66237197 -3.625 5 C-2.99851562 4.071875 -2.37203125 3.14375 -1.7265625 2.1875 C-1.15679688 1.465625 -0.58703125 0.74375 0 0 Z " fill="#0F2EDF" transform="translate(661,499)"/>
<path d="M0 0 C0.33 0 0.66 0 1 0 C0.58846263 4.97093824 0.20399168 9.44508386 -2 14 C-2.66 14 -3.32 14 -4 14 C-3.00956295 9.16371695 -2.04301154 4.52381127 0 0 Z " fill="#070766" transform="translate(901,456)"/>
<path d="M0 0 C3.84160316 5.76240474 4.23538321 11.29157865 4 18 C3.67 18 3.34 18 3 18 C2.49095343 16.12743583 1.99317545 14.25180659 1.5 12.375 C1.08234375 10.80878906 1.08234375 10.80878906 0.65625 9.2109375 C0.00881404 6.04312582 -0.1161292 3.22258533 0 0 Z " fill="#354CD1" transform="translate(549,429)"/>
<path d="M0 0 C0.66 0 1.32 0 2 0 C1.48594831 4.96916636 0.76615118 9.29026351 -1 14 C-1.33 14 -1.66 14 -2 14 C-1.85795259 12.41632253 -1.71119847 10.83306682 -1.5625 9.25 C-1.48128906 8.36828125 -1.40007812 7.4865625 -1.31640625 6.578125 C-1.03761535 4.30649548 -0.61209423 2.20148177 0 0 Z " fill="#22247D" transform="translate(110,263)"/>
<path d="M0 0 C0.66 0.99 1.32 1.98 2 3 C1.1015625 5.91796875 1.1015625 5.91796875 -0.375 9.1875 C-0.85710937 10.27417969 -1.33921875 11.36085938 -1.8359375 12.48046875 C-2.41214844 13.72763672 -2.41214844 13.72763672 -3 15 C-3.66 14.67 -4.32 14.34 -5 14 C-3.45730076 9.27934033 -1.92205381 4.58335908 0 0 Z " fill="#1F3EE2" transform="translate(326,365)"/>
<path d="M0 0 C0 0.99 0 1.98 0 3 C-2.1875 4.60546875 -2.1875 4.60546875 -5 6.1875 C-5.928125 6.71730469 -6.85625 7.24710938 -7.8125 7.79296875 C-8.534375 8.19128906 -9.25625 8.58960938 -10 9 C-10 8.01 -10 7.02 -10 6 C-7.8125 4.39453125 -7.8125 4.39453125 -5 2.8125 C-4.071875 2.28269531 -3.14375 1.75289062 -2.1875 1.20703125 C-1.465625 0.80871094 -0.74375 0.41039062 0 0 Z " fill="#1231DB" transform="translate(604,555)"/>
<path d="M0 0 C0.66 0.33 1.32 0.66 2 1 C-0.31 3.64 -2.62 6.28 -5 9 C-5.99 8.67 -6.98 8.34 -8 8 C-7.04578192 6.85073734 -6.08647955 5.70569459 -5.125 4.5625 C-4.59132812 3.92441406 -4.05765625 3.28632812 -3.5078125 2.62890625 C-2 1 -2 1 0 0 Z " fill="#0D2FE2" transform="translate(193,584)"/>
<path d="M0 0 C1.32 0.33 2.64 0.66 4 1 C0.37 3.31 -3.26 5.62 -7 8 C-7.33 7.01 -7.66 6.02 -8 5 C-6.865625 4.731875 -5.73125 4.46375 -4.5625 4.1875 C-3.386875 3.795625 -2.21125 3.40375 -1 3 C-0.67 2.01 -0.34 1.02 0 0 Z " fill="#1231D5" transform="translate(507,522)"/>
<path d="M0 0 C0.66 0.33 1.32 0.66 2 1 C1.05208333 2.421875 0.10416667 3.84375 -0.84375 5.265625 C-1.41609375 6.12414062 -1.41609375 6.12414062 -2 7 C-3.33333333 9 -4.66666667 11 -6 13 C-6.66 12.67 -7.32 12.34 -8 12 C-5.36 8.04 -2.72 4.08 0 0 Z " fill="#121576" transform="translate(795,422)"/>
<path d="M0 0 C1.5625 1 1.5625 1 3 3 C2.96726452 5.76614782 2.49404328 8.26030547 2 11 C1.67 9.68 1.34 8.36 1 7 C0.34 7 -0.32 7 -1 7 C-0.67 4.69 -0.34 2.38 0 0 Z " fill="#D4D3E0" transform="translate(185,168)"/>
<path d="M0 0 C0.33 0 0.66 0 1 0 C1.77916092 5.02125926 2.13016601 8.97703996 1 14 C0.34 13.67 -0.32 13.34 -1 13 C-0.67 8.71 -0.34 4.42 0 0 Z " fill="#2442E0" transform="translate(195,816)"/>
<path d="M0 0 C0.66 0.33 1.32 0.66 2 1 C0.375 3.9375 0.375 3.9375 -2 7 C-5.25 7.875 -5.25 7.875 -8 8 C-5.33333333 5.33333333 -2.66666667 2.66666667 0 0 Z " fill="#19196D" transform="translate(880,659)"/>
<path d="M0 0 C0.66 0.66 1.32 1.32 2 2 C-0.97 4.475 -0.97 4.475 -4 7 C-5.32 6.34 -6.64 5.68 -8 5 C-4.04 2.525 -4.04 2.525 0 0 Z " fill="#1334DA" transform="translate(448,429)"/>
<path d="M0 0 C0.33 0 0.66 0 1 0 C1.103125 1.216875 1.20625 2.43375 1.3125 3.6875 C1.75794789 7.44388896 2.93610149 9.81033867 5 13 C4.67 13.66 4.34 14.32 4 15 C1.7522025 12.94766315 0.9977758 11.99332739 0 9 C-0.06740865 7.43881572 -0.08514456 5.8749748 -0.0625 4.3125 C-0.05347656 3.50425781 -0.04445313 2.69601562 -0.03515625 1.86328125 C-0.02355469 1.24839844 -0.01195313 0.63351562 0 0 Z " fill="#202274" transform="translate(91,343)"/>
<path d="M0 0 C1.39746302 4.19238905 -0.15968125 6.10701803 -2 10 C-2.33 10.66 -2.66 11.32 -3 12 C-3.66 12 -4.32 12 -5 12 C-3.68938409 7.76570244 -2.05643741 3.92592596 0 0 Z " fill="#1333DF" transform="translate(180,600)"/>
<path d="M0 0 C3.55780196 0.60990891 6.6828589 1.5783681 10 3 C9.67 3.66 9.34 4.32 9 5 C6.03 4.01 3.06 3.02 0 2 C0 1.34 0 0.68 0 0 Z " fill="#0E1071" transform="translate(574,404)"/>
<path d="M0 0 C2 2 2 2 2.08203125 3.875 C1.99308594 4.57625 1.90414062 5.2775 1.8125 6 C1.69841797 7.051875 1.69841797 7.051875 1.58203125 8.125 C1 10 1 10 -2 12 C-1 3.42857143 -1 3.42857143 0 0 Z " fill="#2A2C80" transform="translate(104,288)"/>
<path d="M0 0 C2 3 2 3 1.7578125 5.26171875 C1.54898438 6.06222656 1.34015625 6.86273438 1.125 7.6875 C0.92132813 8.49574219 0.71765625 9.30398437 0.5078125 10.13671875 C0.25644531 11.05904297 0.25644531 11.05904297 0 12 C-0.66 12 -1.32 12 -2 12 C-1 3.42857143 -1 3.42857143 0 0 Z " fill="#282A81" transform="translate(115,242)"/>
<path d="M0 0 C5 2 5 2 10 4 C10 4.99 10 5.98 10 7 C6.4124787 5.66749209 3.1635377 4.169283 0 2 C0 1.34 0 0.68 0 0 Z " fill="#1837D8" transform="translate(429,526)"/>
<path d="M0 0 C5.75 0.75 5.75 0.75 8 3 C5.69 2.67 3.38 2.34 1 2 C0.67 3.32 0.34 4.64 0 6 C-0.66 5.34 -1.32 4.68 -2 4 C-1.34 2.68 -0.68 1.36 0 0 Z " fill="#122EDB" transform="translate(671,482)"/>
<path d="M0 0 C1.875 0.3125 1.875 0.3125 4 1 C6 4 6 4 6 7 C4.68 6.34 3.36 5.68 2 5 C2 4.01 2 3.02 2 2 C1.34 2 0.68 2 0 2 C0 1.34 0 0.68 0 0 Z " fill="#1030D3" transform="translate(522,440)"/>
<path d="M0 0 C1.98 0.495 1.98 0.495 4 1 C3.67 3.64 3.34 6.28 3 9 C2.34 8.01 1.68 7.02 1 6 C0.34 6 -0.32 6 -1 6 C-0.67 4.02 -0.34 2.04 0 0 Z " fill="#D4D3E2" transform="translate(180,187)"/>
<path d="M0 0 C-3.28463659 2.18975773 -6.20696275 2.99806563 -10 4 C-9.67 3.01 -9.34 2.02 -9 1 C-3.79245283 -1.26415094 -3.79245283 -1.26415094 0 0 Z " fill="#0E2DDA" transform="translate(381,852)"/>
<path d="M0 0 C0.33 0 0.66 0 1 0 C1.26218749 3.14624993 1.24754367 4.61837017 -0.5 7.3125 C-1.2425 8.1478125 -1.2425 8.1478125 -2 9 C-2.99 8.67 -3.98 8.34 -5 8 C-4.19185349 6.66402348 -3.37836819 5.331275 -2.5625 4 C-2.11003906 3.2575 -1.65757812 2.515 -1.19140625 1.75 C-0.79824219 1.1725 -0.40507813 0.595 0 0 Z " fill="#1934DD" transform="translate(667,489)"/>
<path d="M0 0 C1.46067199 0.45082469 2.91848032 0.91093537 4.375 1.375 C5.18710937 1.63023437 5.99921875 1.88546875 6.8359375 2.1484375 C9 3 9 3 11 5 C9.741875 4.87625 8.48375 4.7525 7.1875 4.625 C6.12595703 4.52058594 6.12595703 4.52058594 5.04296875 4.4140625 C3 4 3 4 0 2 C0 1.34 0 0.68 0 0 Z " fill="#1530D7" transform="translate(680,485)"/>
<path d="M0 0 C0.66 0 1.32 0 2 0 C1.43454163 3.95820859 0.19097652 6.6659053 -2 10 C-3.33332095 7.3333581 -2.67102033 5.83319697 -2 3 C-1.34 3 -0.68 3 0 3 C0 2.01 0 1.02 0 0 Z " fill="#0B26D1" transform="translate(546,476)"/>
<path d="M0 0 C0 0.66 0 1.32 0 2 C-2.40545638 3.20272819 -3.94996953 3.10071472 -6.625 3.0625 C-7.85089844 3.04896484 -7.85089844 3.04896484 -9.1015625 3.03515625 C-10.04128906 3.01775391 -10.04128906 3.01775391 -11 3 C-7.20844146 1.05276952 -4.29965574 0 0 0 Z " fill="#2C47DE" transform="translate(557,577)"/>
<path d="M0 0 C0.33 0.99 0.66 1.98 1 3 C-3.625 7 -3.625 7 -7 7 C-7 6.34 -7 5.68 -7 5 C-5.46875 3.7109375 -5.46875 3.7109375 -3.5 2.375 C-2.8503125 1.92898438 -2.200625 1.48296875 -1.53125 1.0234375 C-1.0259375 0.68570313 -0.520625 0.34796875 0 0 Z " fill="#1333DF" transform="translate(618,545)"/>
<path d="M0 0 C3.37462715 0.54723683 5.08235 1.0549 8 3 C5.6875 3.625 5.6875 3.625 3 4 C2.01 3.34 1.02 2.68 0 2 C0 1.34 0 0.68 0 0 Z " fill="#0B0E6E" transform="translate(485,365)"/>
<path d="M0 0 C5.75 1.875 5.75 1.875 8 3 C8 3.66 8 4.32 8 5 C5.33333333 4.33333333 2.66666667 3.66666667 0 3 C0 2.01 0 1.02 0 0 Z " fill="#0E106F" transform="translate(257,264)"/>
<path d="M0 0 C0 3.12900213 -0.42451317 4.37418862 -2 7 C-2.99 7.495 -2.99 7.495 -4 8 C-3.50168276 4.31245243 -2.89932357 2.39509338 0 0 Z " fill="#0F1176" transform="translate(145,141)"/>
<path d="M0 0 C3.3 0.99 6.6 1.98 10 3 C10 3.33 10 3.66 10 4 C7.03 3.67 4.06 3.34 1 3 C0.67 2.01 0.34 1.02 0 0 Z " fill="#0D2AD6" transform="translate(363,335)"/>
<path d="M0 0 C1.0326802 2.78823655 1.04509293 3.8677274 0.0625 6.75 C-0.288125 7.4925 -0.63875 8.235 -1 9 C-1.66 8.67 -2.32 8.34 -3 8 C-1.125 1.125 -1.125 1.125 0 0 Z " fill="#0A0B65" transform="translate(890,632)"/>
<path d="M0 0 C0.66 0 1.32 0 2 0 C1.45773019 3.79588866 -0.20127563 5.47211993 -3 8 C-2.45276317 4.62537285 -1.9451 2.91765 0 0 Z " fill="#1631D3" transform="translate(694,566)"/>
</svg>
