<svg width="30" height="30" viewBox="0 0 30 30" fill="none" xmlns="http://www.w3.org/2000/svg">
<path d="M10 11.25H20M10 16.25H17.5M22.5 5C23.4946 5 24.4484 5.39509 25.1517 6.09835C25.8549 6.80161 26.25 7.75544 26.25 8.75V18.75C26.25 19.7446 25.8549 20.6984 25.1517 21.4017C24.4484 22.1049 23.4946 22.5 22.5 22.5H16.25L10 26.25V22.5H7.5C6.50544 22.5 5.55161 22.1049 4.84835 21.4017C4.14509 20.6984 3.75 19.7446 3.75 18.75V8.75C3.75 7.75544 4.14509 6.80161 4.84835 6.09835C5.55161 5.39509 6.50544 5 7.5 5H22.5Z" stroke="black" stroke-width="2.2" stroke-linecap="round" stroke-linejoin="round"/>
</svg>
