<svg width="28" height="28" viewBox="0 0 28 28" fill="none" xmlns="http://www.w3.org/2000/svg">
<path fill-rule="evenodd" clip-rule="evenodd" d="M3.5 5.83301C3.5 4.90475 3.86875 4.01451 4.52513 3.35813C5.1815 2.70176 6.07174 2.33301 7 2.33301H16.3333C18.4993 2.33301 20.5765 3.19342 22.108 4.72497C23.6396 6.25652 24.5 8.33374 24.5 10.4997V22.1663C24.5 23.0946 24.1313 23.9848 23.4749 24.6412C22.8185 25.2976 21.9283 25.6663 21 25.6663H7C6.07174 25.6663 5.1815 25.2976 4.52513 24.6412C3.86875 23.9848 3.5 23.0946 3.5 22.1663V5.83301ZM15.1667 4.66634H7C6.69058 4.66634 6.39383 4.78926 6.17504 5.00805C5.95625 5.22684 5.83333 5.52359 5.83333 5.83301V22.1663C5.83333 22.4758 5.95625 22.7725 6.17504 22.9913C6.39383 23.2101 6.69058 23.333 7 23.333H21C21.3094 23.333 21.6062 23.2101 21.825 22.9913C22.0438 22.7725 22.1667 22.4758 22.1667 22.1663V10.4997H15.1667V4.66634ZM21.6813 8.16634C21.3062 7.3088 20.7306 6.5539 20.003 5.96514C19.2753 5.37637 18.4169 4.97096 17.5 4.78301V8.16634H21.6813Z" fill="black"/>
</svg>
