<svg width="30" height="39" viewBox="0 0 30 39" fill="none" xmlns="http://www.w3.org/2000/svg">
<path d="M2.42204 11.3492C5.12803 6.59327 15.7265 1.80968 20.6875 0.0123807C22.5817 -0.264127 29.3467 4.16 29.8879 6.37206C30.3208 8.14171 29.3918 10.2432 28.9408 11.0727C23.7453 13.3954 22.4915 10.2893 22.4464 8.44587C21.6887 8.77768 20.5071 8.03111 20.011 7.61635C19.1451 13.2571 14.6892 17.7089 12.5695 19.2297C21.9864 19.0085 26.6858 24.2068 27.8584 26.8337C23.7994 36.788 11.2165 38.8157 6.34573 39C10.1341 36.7879 12.4342 34.0229 13.1107 32.9168C-3.26054 31.1195 -0.960448 17.2941 2.42204 11.3492Z" fill="white"/>
</svg>
