<svg width="40" height="40" viewBox="0 0 40 40" fill="none" xmlns="http://www.w3.org/2000/svg">
<g clip-path="url(#clip0_1753_8369)">
<path d="M38.7498 18.0415L32.2581 12.9982C31.1148 12.1079 29.6855 11.6662 28.2392 11.7561C26.7928 11.846 25.4291 12.4614 24.4048 13.4865L23.8965 13.9965" stroke="black" stroke-width="3" stroke-linecap="round" stroke-linejoin="round"/>
<path d="M1.25 10.2515C1.25 7.86452 2.19822 5.57534 3.88603 3.8875C5.57387 2.19967 7.86305 1.25146 10.25 1.25146" stroke="black" stroke-width="3" stroke-linecap="round" stroke-linejoin="round"/>
<path d="M5.75 10.9495C5.75 9.51692 6.3191 8.14299 7.33212 7.12997C8.34512 6.11695 9.71907 5.54785 11.1517 5.54785" stroke="black" stroke-width="3" stroke-linecap="round" stroke-linejoin="round"/>
<path d="M7.03442 15.5483L5.81276 16.77C5.64551 16.937 5.51281 17.1353 5.42229 17.3537C5.33176 17.572 5.28516 17.8062 5.28516 18.0425C5.28516 18.2788 5.33176 18.513 5.42229 18.7313C5.51281 18.9497 5.64551 19.148 5.81276 19.315L21.2711 34.775C21.4382 34.9423 21.6367 35.075 21.8552 35.1657C22.0737 35.2562 22.3079 35.3028 22.5444 35.3028C22.7809 35.3028 23.0151 35.2562 23.2336 35.1657C23.4521 35.075 23.6506 34.9423 23.8177 34.775L25.6827 32.8833" stroke="black" stroke-width="3" stroke-linecap="round" stroke-linejoin="round"/>
<path d="M30.3336 28.3317L32.9819 25.6167C33.1492 25.4497 33.2819 25.2513 33.3724 25.033C33.4629 24.8147 33.5096 24.5807 33.5096 24.3442C33.5096 24.1078 33.4629 23.8738 33.3724 23.6555C33.2819 23.4372 33.1492 23.2388 32.9819 23.0717L17.5169 7.61173C17.3497 7.44442 17.1512 7.3117 16.9327 7.22115C16.7142 7.13058 16.4801 7.08398 16.2436 7.08398C16.0071 7.08398 15.7729 7.13058 15.5544 7.22115C15.3359 7.3117 15.1374 7.44442 14.9703 7.61173L14.1836 8.40007" stroke="black" stroke-width="3" stroke-linecap="round" stroke-linejoin="round"/>
<path d="M25.9492 25.4401L30.6442 20.7451" stroke="black" stroke-width="1.5" stroke-linecap="round" stroke-linejoin="round"/>
<path d="M18.9453 32.4467L22.197 29.1934" stroke="black" stroke-width="1.5" stroke-linecap="round" stroke-linejoin="round"/>
<path d="M38.7509 38.7482L30.1792 35.8915C28.7122 35.4024 27.3792 34.5784 26.2859 33.4849L22.7242 29.9232C22.233 29.4322 21.942 28.776 21.9077 28.0822C21.8735 27.3885 22.0985 26.7069 22.5389 26.1699C22.9794 25.6329 23.6037 25.2787 24.2907 25.1765C24.9777 25.0742 25.678 25.231 26.2559 25.6165L32.4492 29.7449" stroke="black" stroke-width="3" stroke-linecap="round" stroke-linejoin="round"/>
<path d="M16.3832 21.3014C16.9712 21.3974 17.5737 21.3501 18.1393 21.1636C18.7052 20.9769 19.2177 20.6567 19.6332 20.2297C20.277 19.7532 20.7117 19.0461 20.8458 18.2564C20.98 17.4666 20.8035 16.6556 20.3532 15.9931C19.7152 15.5092 18.9145 15.2911 18.1192 15.3843C17.3238 15.4775 16.5954 15.8749 16.0865 16.4931C15.5768 17.1112 14.8478 17.5084 14.052 17.6016C13.2563 17.6949 12.4553 17.4768 11.8165 16.9931C11.367 16.3304 11.191 15.5196 11.3252 14.7301C11.4593 13.9406 11.8933 13.2335 12.5365 12.7565C12.9501 12.326 13.4617 12.002 14.0276 11.8119C14.5935 11.6218 15.1969 11.5713 15.7865 11.6648" stroke="black" stroke-width="3" stroke-linecap="round" stroke-linejoin="round"/>
<path d="M19.6328 21.23L20.8145 22.475" stroke="black" stroke-width="1.5" stroke-linecap="round" stroke-linejoin="round"/>
<path d="M11.3555 12.4985L12.5371 13.7452" stroke="black" stroke-width="1.5" stroke-linecap="round" stroke-linejoin="round"/>
</g>
<defs>
<clipPath id="clip0_1753_8369">
<rect width="40" height="40" fill="white"/>
</clipPath>
</defs>
</svg>
