<svg width="7" height="12" viewBox="0 0 7 12" fill="none" xmlns="http://www.w3.org/2000/svg">
<path d="M1.21543 11.2588L6.09043 6.38379C6.19198 6.28221 6.24902 6.14446 6.24902 6.00083C6.24902 5.8572 6.19198 5.71945 6.09043 5.61787L1.21543 0.742873C1.11327 0.644204 0.976445 0.589607 0.834422 0.590841C0.692399 0.592075 0.556541 0.649041 0.456112 0.749471C0.355683 0.8499 0.298716 0.985757 0.297482 1.12778C0.296247 1.2698 0.350844 1.40663 0.449513 1.50879L4.9421 6.00029L0.449513 10.4918C0.347967 10.5934 0.290921 10.7311 0.290921 10.8747C0.290921 11.0184 0.347967 11.1561 0.449513 11.2577C0.551091 11.3593 0.688842 11.4163 0.832472 11.4163C0.976103 11.4163 1.11385 11.3603 1.21543 11.2588Z" fill="#B8B8B8"/>
</svg>
