<svg width="200" height="200" viewBox="0 0 200 200" fill="none" xmlns="http://www.w3.org/2000/svg">
<rect x="0.5" y="0.5" width="199" height="199" rx="11.5" stroke="#4B4B4B" stroke-dasharray="4 4"/>
<path d="M85.25 72.25H114.75" stroke="#4B4B4B" stroke-width="2" stroke-linecap="round"/>
<path d="M100.25 57.25L100.25 86.75" stroke="#4B4B4B" stroke-width="2" stroke-linecap="round"/>
<path d="M63.0234 149.945H61.1719V129.062H63.0234V149.945ZM51.9375 130.68C52.9688 130.68 53.8867 130.98 54.6914 131.582C55.4961 132.184 56.125 133.031 56.5781 134.125C57.0312 135.219 57.2578 136.492 57.2578 137.945C57.2578 139.398 57.0312 140.672 56.5781 141.766C56.125 142.859 55.4961 143.703 54.6914 144.297C53.8867 144.891 52.9688 145.188 51.9375 145.188C50.9062 145.188 49.9883 144.891 49.1836 144.297C48.3789 143.703 47.75 142.859 47.2969 141.766C46.8438 140.672 46.6172 139.398 46.6172 137.945C46.6172 136.492 46.8438 135.219 47.2969 134.125C47.75 133.031 48.3789 132.184 49.1836 131.582C49.9883 130.98 50.9062 130.68 51.9375 130.68ZM51.9375 132.32C51.25 132.32 50.6367 132.555 50.0977 133.023C49.5586 133.492 49.1406 134.148 48.8438 134.992C48.5469 135.836 48.3984 136.82 48.3984 137.945C48.3984 139.055 48.5469 140.035 48.8438 140.887C49.1406 141.738 49.5586 142.395 50.0977 142.855C50.6367 143.316 51.25 143.547 51.9375 143.547C52.625 143.547 53.2383 143.316 53.7773 142.855C54.3164 142.395 54.7344 141.738 55.0312 140.887C55.3281 140.035 55.4766 139.055 55.4766 137.945C55.4766 136.82 55.3281 135.836 55.0312 134.992C54.7344 134.148 54.3203 133.492 53.7891 133.023C53.2578 132.555 52.6406 132.32 51.9375 132.32ZM77.4375 144.672H67.8047V131.125H77.4375V144.672ZM69.6094 143.172H75.6328V132.602H69.6094V143.172ZM83.7656 149.945H81.9141V129.062H83.7656V149.945ZM94.4531 135.461C94.4531 136.883 94.1797 138.293 93.6328 139.691C93.0859 141.09 92.3555 142.336 91.4414 143.43C90.5273 144.523 89.5234 145.344 88.4297 145.891L87.3281 144.438C88.3125 143.953 89.2344 143.23 90.0938 142.27C90.9531 141.309 91.6406 140.227 92.1562 139.023C92.6719 137.82 92.9297 136.633 92.9297 135.461V132.016H94.4531V135.461ZM94.7812 135.461C94.7812 136.602 95.0352 137.742 95.543 138.883C96.0508 140.023 96.7383 141.035 97.6055 141.918C98.4727 142.801 99.4141 143.469 100.43 143.922L99.3984 145.375C98.2734 144.859 97.2461 144.094 96.3164 143.078C95.3867 142.062 94.6523 140.891 94.1133 139.562C93.5742 138.234 93.3047 136.867 93.3047 135.461V132.016H94.7812V135.461ZM99.75 132.742H88.0078V131.219H99.75V132.742ZM104.508 149.898H102.656V129.062H104.508V149.898ZM133.102 140.523H114.094V138.977H133.102V140.523ZM130.875 136.984H116.508V135.484H130.875V136.984ZM130.734 131.453H118.312V136.211H116.508V129.906H130.734V131.453ZM123.586 142.352C125.07 142.352 126.352 142.496 127.43 142.785C128.508 143.074 129.332 143.5 129.902 144.062C130.473 144.625 130.758 145.305 130.758 146.102C130.758 146.898 130.473 147.578 129.902 148.141C129.332 148.703 128.512 149.129 127.441 149.418C126.371 149.707 125.086 149.852 123.586 149.852C122.086 149.852 120.797 149.707 119.719 149.418C118.641 149.129 117.816 148.703 117.246 148.141C116.676 147.578 116.391 146.898 116.391 146.102C116.391 145.305 116.676 144.625 117.246 144.062C117.816 143.5 118.641 143.074 119.719 142.785C120.797 142.496 122.086 142.352 123.586 142.352ZM123.586 143.781C122.477 143.781 121.523 143.875 120.727 144.062C119.93 144.25 119.32 144.516 118.898 144.859C118.477 145.203 118.266 145.617 118.266 146.102C118.266 146.586 118.477 147 118.898 147.344C119.32 147.688 119.93 147.949 120.727 148.129C121.523 148.309 122.477 148.398 123.586 148.398C124.695 148.398 125.648 148.309 126.445 148.129C127.242 147.949 127.852 147.688 128.273 147.344C128.695 147 128.906 146.586 128.906 146.102C128.906 145.617 128.695 145.203 128.273 144.859C127.852 144.516 127.242 144.25 126.445 144.062C125.648 143.875 124.695 143.781 123.586 143.781ZM153.891 142.07H134.812V140.547H153.891V142.07ZM151.43 134.641H139.125V137.477H137.297V133.258H149.578V131.102H137.227V129.602H151.43V134.641ZM151.875 138.344H137.297V136.867H151.875V138.344ZM145.242 141.297H143.438V137.617H145.242V141.297ZM151.547 149.711H149.695V145.164H136.945V143.664H151.547V149.711Z" fill="#4B4B4B"/>
</svg>
