<svg width="19" height="21" viewBox="0 0 19 21" fill="none" xmlns="http://www.w3.org/2000/svg">
<path d="M14.4252 12.1662L13.7222 11.5508V6.19565C13.7222 5.10019 13.2774 4.0496 12.4856 3.27499C11.6937 2.50039 10.6198 2.06522 9.5 2.06522C8.3802 2.06522 7.30626 2.50039 6.51444 3.27499C5.72262 4.0496 5.27778 5.10019 5.27778 6.19565V11.5508L4.57478 12.1662C3.55463 13.0568 2.80764 14.2073 2.41723 15.4891H16.5828C16.1924 14.2073 15.4454 13.0568 14.4252 12.1662ZM12.6667 17.5543C12.6667 18.3759 12.333 19.1639 11.7392 19.7448C11.1453 20.3258 10.3399 20.6522 9.5 20.6522C8.66015 20.6522 7.85469 20.3258 7.26083 19.7448C6.66696 19.1639 6.33333 18.3759 6.33333 17.5543H5.46061e-06C-0.00142954 16.2466 0.279979 14.9533 0.825746 13.7595C1.37151 12.5657 2.16929 11.4984 3.16667 10.6276V6.19565C3.16667 4.55246 3.83393 2.97657 5.02166 1.81466C6.20939 0.652754 7.8203 0 9.5 0C11.1797 0 12.7906 0.652754 13.9783 1.81466C15.1661 2.97657 15.8333 4.55246 15.8333 6.19565V10.6276C16.8307 11.4984 17.6285 12.5657 18.1743 13.7595C18.72 14.9533 19.0014 16.2466 19 17.5543H12.6667ZM9.5 18.587C9.77995 18.587 10.0484 18.4782 10.2464 18.2845C10.4443 18.0909 10.5556 17.8282 10.5556 17.5543H8.44444C8.44444 17.8282 8.55565 18.0909 8.75361 18.2845C8.95156 18.4782 9.22005 18.587 9.5 18.587Z" fill="black"/>
</svg>
