<svg width="22" height="22" viewBox="0 0 22 22" fill="none" xmlns="http://www.w3.org/2000/svg">
<path d="M18.6748 0.149414C19.413 0.149414 20.1198 0.457104 20.6396 1.00098C21.159 1.54452 21.4501 2.28013 21.4502 3.0459V20.6133C21.4502 20.7774 21.4033 20.9388 21.3154 21.0762C21.2276 21.2134 21.1021 21.3217 20.9541 21.3857C20.8059 21.4498 20.6421 21.4665 20.4844 21.4336C20.3266 21.4006 20.1825 21.3188 20.0703 21.2012V21.2021L16.3262 17.2842C16.1077 17.0556 15.8127 16.9279 15.5068 16.9277H2.9248C2.18658 16.9277 1.4798 16.621 0.959961 16.0771C0.440466 15.5335 0.149414 14.7972 0.149414 14.0312V3.0459C0.149485 2.28013 0.440616 1.54452 0.959961 1.00098C1.4798 0.457104 2.18658 0.149414 2.9248 0.149414H18.6748ZM2.9248 1.82324C2.61883 1.82324 2.32404 1.95015 2.10547 2.17871C1.88672 2.40757 1.76277 2.71946 1.7627 3.0459V14.0312C1.7627 14.3578 1.88666 14.6705 2.10547 14.8994C2.32402 15.1279 2.6189 15.2549 2.9248 15.2549H15.5068C16.2447 15.2552 16.9511 15.5618 17.4707 16.1055L19.8369 18.5811V3.0459C19.8368 2.71946 19.7129 2.40757 19.4941 2.17871C19.2756 1.95015 18.9808 1.82324 18.6748 1.82324H2.9248Z" fill="black" stroke="black" stroke-width="0.3"/>
<path d="M11.3936 10.041C11.5857 10.041 11.7728 10.1096 11.9131 10.2354C12.0539 10.3617 12.1366 10.5371 12.1367 10.7236C12.1367 10.9102 12.054 11.0855 11.9131 11.2119C11.7727 11.3379 11.5858 11.4062 11.3936 11.4062H5.45898C5.26673 11.4062 5.07884 11.3379 4.93848 11.2119C4.79779 11.0855 4.71484 10.9101 4.71484 10.7236C4.71493 10.5372 4.79769 10.3617 4.93848 10.2354C5.07884 10.1094 5.26673 10.041 5.45898 10.041H11.3936ZM16.1416 7.37793C16.3337 7.378 16.5209 7.44647 16.6611 7.57227C16.8019 7.69864 16.8847 7.87407 16.8848 8.06055C16.8848 8.24709 16.8019 8.42239 16.6611 8.54883C16.5208 8.67474 16.3338 8.7431 16.1416 8.74316H5.45898C5.26673 8.74316 5.07884 8.6748 4.93848 8.54883C4.7978 8.42241 4.71484 8.24698 4.71484 8.06055C4.71494 7.87409 4.79768 7.69863 4.93848 7.57227C5.07884 7.4463 5.26673 7.37793 5.45898 7.37793H16.1416ZM16.1416 4.71484C16.3337 4.71491 16.5209 4.7834 16.6611 4.90918C16.8019 5.03554 16.8847 5.211 16.8848 5.39746C16.8848 5.58399 16.8019 5.75931 16.6611 5.88574C16.5208 6.01165 16.3338 6.08001 16.1416 6.08008H5.45898C5.26673 6.08008 5.07884 6.01171 4.93848 5.88574C4.79782 5.75932 4.71484 5.58389 4.71484 5.39746C4.71496 5.21101 4.79768 5.03554 4.93848 4.90918C5.07884 4.78321 5.26673 4.71484 5.45898 4.71484H16.1416Z" fill="black" stroke="black" stroke-width="0.3"/>
</svg>
