<svg width="21" height="21" viewBox="0 0 21 21" fill="none" xmlns="http://www.w3.org/2000/svg">
<path d="M19.2842 11.1929C19.1129 11.0013 19.0184 10.755 19.0184 10.5C19.0184 10.245 19.1129 9.99868 19.2842 9.80709L20.6522 8.2953C20.803 8.13012 20.8966 7.92229 20.9196 7.70161C20.9426 7.48094 20.8939 7.25876 20.7805 7.06697L18.6429 3.43446C18.5306 3.24288 18.3596 3.09103 18.1542 3.00054C17.9489 2.91005 17.7197 2.88555 17.4994 2.93053L15.4901 3.32948C15.2344 3.38137 14.9683 3.33954 14.7418 3.21189C14.5154 3.08424 14.3444 2.87959 14.261 2.63657L13.6091 0.715331C13.5374 0.506807 13.4008 0.325692 13.2186 0.197585C13.0364 0.0694784 12.8178 0.000859619 12.5937 0.00142776H8.31867C8.08561 -0.0105218 7.85497 0.0527935 7.66199 0.181703C7.469 0.310613 7.32427 0.49803 7.24991 0.715331L6.6514 2.63657C6.56804 2.87959 6.39701 3.08424 6.17058 3.21189C5.94415 3.33954 5.67799 3.38137 5.42232 3.32948L3.35961 2.93053C3.15072 2.90153 2.93777 2.93391 2.74758 3.02359C2.55739 3.11326 2.39847 3.25622 2.29084 3.43446L0.153315 7.06697C0.036991 7.25662 -0.0153121 7.47755 0.0038834 7.69817C0.0230789 7.91878 0.11279 8.12778 0.260192 8.2953L1.61752 9.80709C1.78887 9.99868 1.88336 10.245 1.88336 10.5C1.88336 10.755 1.78887 11.0013 1.61752 11.1929L0.260192 12.7047C0.11279 12.8722 0.0230789 13.0812 0.0038834 13.3018C-0.0153121 13.5224 0.036991 13.7434 0.153315 13.933L2.29084 17.5655C2.40317 17.7571 2.57419 17.909 2.77954 17.9995C2.98488 18.0899 3.21407 18.1144 3.43442 18.0695L5.4437 17.6705C5.69936 17.6186 5.96553 17.6605 6.19195 17.7881C6.41838 17.9158 6.58941 18.1204 6.67278 18.3634L7.32472 20.2847C7.39909 20.502 7.54381 20.6894 7.7368 20.8183C7.92979 20.9472 8.16043 21.0105 8.39349 20.9986H12.6685C12.8926 20.9991 13.1112 20.9305 13.2934 20.8024C13.4756 20.6743 13.6122 20.4932 13.6839 20.2847L14.3358 18.3634C14.4192 18.1204 14.5902 17.9158 14.8166 17.7881C15.0431 17.6605 15.3092 17.6186 15.5649 17.6705L17.5742 18.0695C17.7945 18.1144 18.0237 18.0899 18.2291 17.9995C18.4344 17.909 18.6054 17.7571 18.7177 17.5655L20.8553 13.933C20.9688 13.7412 21.0175 13.5191 20.9944 13.2984C20.9714 13.0777 20.8778 12.8699 20.727 12.7047L19.2842 11.1929ZM17.6917 12.5997L18.5467 13.5446L17.1787 15.8753L15.9176 15.6233C15.1478 15.4687 14.3471 15.5972 13.6674 15.9842C12.9877 16.3713 12.4763 16.99 12.2304 17.723L11.8242 18.8989H9.08818L8.70343 17.702C8.45746 16.9691 7.94608 16.3503 7.26637 15.9632C6.58666 15.5762 5.78594 15.4477 5.01619 15.6023L3.75505 15.8543L2.36566 13.5341L3.22067 12.5892C3.74645 12.0118 4.03713 11.2642 4.03713 10.4895C4.03713 9.71478 3.74645 8.96723 3.22067 8.38979L2.36566 7.44491L3.73368 5.13523L4.99482 5.3872C5.76456 5.54176 6.56529 5.41332 7.245 5.02625C7.92471 4.63919 8.43608 4.02045 8.68205 3.28748L9.08818 2.10114H11.8242L12.2304 3.29798C12.4763 4.03095 12.9877 4.64969 13.6674 5.03675C14.3471 5.42381 15.1478 5.55226 15.9176 5.39769L17.1787 5.14573L18.5467 7.47641L17.6917 8.42128C17.1719 8.9974 16.8848 9.74062 16.8848 10.5105C16.8848 11.2804 17.1719 12.0236 17.6917 12.5997ZM10.4562 6.30057C9.61067 6.30057 8.78414 6.54686 8.08111 7.0083C7.37808 7.46974 6.83013 8.1256 6.50656 8.89295C6.18299 9.66029 6.09833 10.5047 6.26329 11.3193C6.42824 12.1339 6.8354 12.8821 7.43328 13.4694C8.03116 14.0567 8.7929 14.4567 9.62218 14.6187C10.4515 14.7808 11.311 14.6976 12.0922 14.3798C12.8734 14.0619 13.541 13.5237 14.0108 12.8331C14.4805 12.1425 14.7313 11.3306 14.7313 10.5C14.7313 9.38624 14.2809 8.3181 13.4791 7.53056C12.6774 6.74301 11.59 6.30057 10.4562 6.30057ZM10.4562 12.5997C10.0334 12.5997 9.62017 12.4766 9.26865 12.2458C8.91714 12.0151 8.64317 11.6872 8.48138 11.3035C8.3196 10.9199 8.27727 10.4977 8.35975 10.0904C8.44222 9.68306 8.6458 9.30893 8.94474 9.01528C9.24368 8.72163 9.62455 8.52165 10.0392 8.44063C10.4538 8.35961 10.8836 8.40119 11.2742 8.56012C11.6648 8.71904 11.9986 8.98816 12.2335 9.33346C12.4684 9.67876 12.5937 10.0847 12.5937 10.5C12.5937 11.0569 12.3685 11.5909 11.9677 11.9847C11.5668 12.3785 11.0231 12.5997 10.4562 12.5997Z" fill="black"/>
</svg>
