<svg width="118" height="78" viewBox="0 0 118 78" fill="none" xmlns="http://www.w3.org/2000/svg">
<path d="M15.207 56.5635L0.479125 43.0537C0.172343 42.7722 0 42.3905 0 41.9924C0 41.5944 0.172343 41.2127 0.479125 40.9312L15.207 27.4214C15.5156 27.1479 15.929 26.9966 16.358 27.0001C16.7871 27.0035 17.1975 27.1613 17.5009 27.4397C17.8043 27.718 17.9765 28.0945 17.9802 28.488C17.9839 28.8816 17.819 29.2608 17.5209 29.5439L3.94835 41.9909L17.5209 54.438C17.8277 54.7195 18 55.1012 18 55.4992C18 55.8973 17.8277 56.279 17.5209 56.5605C17.214 56.8419 16.7978 57 16.3639 57C15.93 57 15.5138 56.8449 15.207 56.5635Z" fill="white"/>
</svg>
