<svg width="180" height="180" viewBox="0 0 180 180" fill="none" xmlns="http://www.w3.org/2000/svg">
<rect width="180" height="180" fill="#1E1E1E"/>
<g id="&#237;&#148;&#132;&#235;&#161;&#156;&#237;&#149;&#132;">
<g id="Frame 427319319">
<circle id="Ellipse 100" cx="90" cy="90" r="90" fill="#D9D9D9"/>
<path id="Vector" d="M80.0971 90.203C80.4484 90.0509 80.8262 89.9718 81.2081 89.9704C81.59 89.969 81.9683 90.0453 82.3206 90.1948C82.673 90.3444 82.9922 90.5641 83.2595 90.841C83.5267 91.1179 83.7366 91.4464 83.8766 91.8071C84.0166 92.1677 84.084 92.5532 84.0747 92.9407C84.0654 93.3283 83.9797 93.71 83.8226 94.0633C83.6655 94.4166 83.4402 94.7344 83.16 94.9978C82.8799 95.2612 82.5505 95.465 82.1914 95.597C80.2815 96.3608 78.6424 97.6904 77.4872 99.4127C76.3319 101.135 75.7142 103.17 75.7143 105.254V110.3C75.7143 111.069 76.0153 111.807 76.5511 112.351C77.0869 112.894 77.8137 113.2 78.5714 113.2H101.429C102.186 113.2 102.913 112.894 103.449 112.351C103.985 111.807 104.286 111.069 104.286 110.3V105.524C104.286 103.373 103.642 101.274 102.44 99.5028C101.238 97.7321 99.5342 96.374 97.5543 95.6086C97.193 95.4813 96.8605 95.2817 96.5766 95.0216C96.2927 94.7615 96.0631 94.4462 95.9015 94.0944C95.7399 93.7426 95.6495 93.3614 95.6357 92.9735C95.6219 92.5855 95.685 92.1987 95.8212 91.836C95.9574 91.4733 96.164 91.142 96.4287 90.8618C96.6934 90.5816 97.0108 90.3582 97.3621 90.2048C97.7135 90.0515 98.0916 89.9712 98.474 89.9689C98.8565 89.9666 99.2355 90.0423 99.5886 90.1914C102.65 91.3751 105.285 93.4752 107.145 96.2133C109.004 98.9513 110 102.198 110 105.524V110.3C110 112.607 109.097 114.82 107.489 116.452C105.882 118.083 103.702 119 101.429 119H78.5714C76.2981 119 74.118 118.083 72.5105 116.452C70.9031 114.82 70 112.607 70 110.3V105.254C70.0004 102.006 70.9636 98.8342 72.7645 96.1499C74.5653 93.4655 77.1203 91.3934 80.0971 90.203ZM90 61C93.031 61 95.9379 62.2221 98.0812 64.3976C100.224 66.573 101.429 69.5235 101.429 72.6V78.4C101.429 81.4765 100.224 84.427 98.0812 86.6024C95.9379 88.7779 93.031 90 90 90C86.969 90 84.0621 88.7779 81.9188 86.6024C79.7755 84.427 78.5714 81.4765 78.5714 78.4V72.6C78.5714 69.5235 79.7755 66.573 81.9188 64.3976C84.0621 62.2221 86.969 61 90 61ZM90 66.8C88.4845 66.8 87.031 67.4111 85.9594 68.4988C84.8878 69.5865 84.2857 71.0617 84.2857 72.6V78.4C84.2857 79.9383 84.8878 81.4135 85.9594 82.5012C87.031 83.5889 88.4845 84.2 90 84.2C91.5155 84.2 92.969 83.5889 94.0406 82.5012C95.1122 81.4135 95.7143 79.9383 95.7143 78.4V72.6C95.7143 71.0617 95.1122 69.5865 94.0406 68.4988C92.969 67.4111 91.5155 66.8 90 66.8Z" fill="#7A7A7A"/>
</g>
</g>
</svg>
