<svg width="49" height="48" viewBox="0 0 49 48" fill="none" xmlns="http://www.w3.org/2000/svg">
<path d="M8.5 20V40H32.5V20H8.5ZM12.5 16V8C12.5 6.93913 12.9214 5.92172 13.6716 5.17157C14.4217 4.42143 15.4391 4 16.5 4H40.5C41.5609 4 42.5783 4.42143 43.3284 5.17157C44.0786 5.92172 44.5 6.93913 44.5 8V28C44.5 29.0609 44.0786 30.0783 43.3284 30.8284C42.5783 31.5786 41.5609 32 40.5 32H36.5V40C36.5 41.0609 36.0786 42.0783 35.3284 42.8284C34.5783 43.5786 33.5609 44 32.5 44H8.5C7.43913 44 6.42172 43.5786 5.67157 42.8284C4.92143 42.0783 4.5 41.0609 4.5 40V20C4.5 18.9391 4.92143 17.9217 5.67157 17.1716C6.42172 16.4214 7.43913 16 8.5 16H12.5ZM16.5 16H32.5C33.5609 16 34.5783 16.4214 35.3284 17.1716C36.0786 17.9217 36.5 18.9391 36.5 20V28H40.5V8H16.5V16ZM16.5 34C14.9087 34 13.3826 33.3679 12.2574 32.2426C11.1321 31.1174 10.5 29.5913 10.5 28C10.5 26.4087 11.1321 24.8826 12.2574 23.7574C13.3826 22.6321 14.9087 22 16.5 22C18.0913 22 19.6174 22.6321 20.7426 23.7574C21.8679 24.8826 22.5 26.4087 22.5 28C22.5 29.5913 21.8679 31.1174 20.7426 32.2426C19.6174 33.3679 18.0913 34 16.5 34ZM16.5 30C17.0304 30 17.5391 29.7893 17.9142 29.4142C18.2893 29.0391 18.5 28.5304 18.5 28C18.5 27.4696 18.2893 26.9609 17.9142 26.5858C17.5391 26.2107 17.0304 26 16.5 26C15.9696 26 15.4609 26.2107 15.0858 26.5858C14.7107 26.9609 14.5 27.4696 14.5 28C14.5 28.5304 14.7107 29.0391 15.0858 29.4142C15.4609 29.7893 15.9696 30 16.5 30ZM18.5 16C18.5 14.4087 19.1321 12.8826 20.2574 11.7574C21.3826 10.6321 22.9087 10 24.5 10C26.0913 10 27.6174 10.6321 28.7426 11.7574C29.8679 12.8826 30.5 14.4087 30.5 16H26.5C26.5 15.4696 26.2893 14.9609 25.9142 14.5858C25.5391 14.2107 25.0304 14 24.5 14C23.9696 14 23.4609 14.2107 23.0858 14.5858C22.7107 14.9609 22.5 15.4696 22.5 16H18.5ZM22.228 43.036L18.772 41.022L24.222 31.676C24.6951 30.8644 25.3521 30.1752 26.1402 29.6639C26.9283 29.1527 27.8255 28.8336 28.7594 28.7324C29.6934 28.6312 30.6381 28.7508 31.5174 29.0814C32.3967 29.4121 33.1861 29.9445 33.822 30.636L35.998 33.004L33.052 35.712L30.878 33.344C30.6659 33.1136 30.4027 32.9362 30.1096 32.8261C29.8164 32.716 29.5015 32.6762 29.1901 32.7101C28.8788 32.7439 28.5798 32.8504 28.3171 33.021C28.0545 33.1915 27.8356 33.4214 27.678 33.692L22.228 43.036ZM35.252 17.096C36.375 16.6626 37.6026 16.5777 38.7746 16.8524C39.9466 17.1271 41.0086 17.7487 41.822 18.636L43.998 21.004L41.052 23.712L38.878 21.344C38.5828 21.0228 38.1906 20.8069 37.7613 20.7292C37.332 20.6516 36.889 20.7165 36.5 20.914V20C36.5 18.858 36.02 17.826 35.252 17.098V17.096Z" fill="#C1C7CD"/>
</svg>
