<svg width="217" height="332" viewBox="0 0 217 332" fill="none" xmlns="http://www.w3.org/2000/svg">
<path d="M20.8296 96.6138C44.1011 56.1273 135.248 15.4055 177.912 0.105395C194.202 -2.24847 252.381 35.4133 257.036 54.2442C260.759 69.309 252.769 87.1987 248.891 94.2602C204.209 114.033 193.427 87.5906 193.039 71.8982C186.523 74.7228 176.361 68.3674 172.094 64.8366C164.648 112.855 126.327 150.753 108.098 163.699C189.083 161.816 229.498 206.068 239.582 228.43C204.675 313.169 96.462 330.431 54.5733 332C87.1534 313.169 106.934 289.63 112.752 280.215C-28.0406 264.915 -8.25985 147.222 20.8296 96.6138Z" fill="url(#paint0_linear_1973_9352)" fill-opacity="0.2"/>
<defs>
<linearGradient id="paint0_linear_1973_9352" x1="129" y1="0" x2="129" y2="355" gradientUnits="userSpaceOnUse">
<stop stop-color="#003EFB"/>
<stop offset="1" stop-color="white"/>
</linearGradient>
</defs>
</svg>
