<svg width="40" height="40" viewBox="0 0 40 40" fill="none" xmlns="http://www.w3.org/2000/svg">
<g clip-path="url(#clip0_1753_8382)">
<path d="M19.9993 32.8352C27.088 32.8352 32.8347 27.0885 32.8347 19.9998C32.8347 12.9111 27.088 7.16455 19.9993 7.16455C12.9106 7.16455 7.16406 12.9111 7.16406 19.9998C7.16406 27.0885 12.9106 32.8352 19.9993 32.8352Z" stroke="black" stroke-width="3" stroke-miterlimit="10" stroke-linecap="round" stroke-linejoin="round"/>
<path d="M1.72852 20C1.72852 17.8382 2.10397 15.764 2.79323 13.8391M2.79323 26.1608C5.32128 33.2207 12.0708 38.2715 20 38.2715C30.091 38.2715 38.2715 30.091 38.2715 20C38.2715 13.1685 34.5223 7.21262 28.9693 4.07777M5.96935 8.2951C7.29818 6.70397 8.8926 5.3423 10.6845 4.27828M16.8275 2.00297C17.8578 1.82257 18.918 1.72852 20 1.72852C21.082 1.72852 22.1422 1.82257 23.1725 2.00297" stroke="black" stroke-width="3" stroke-miterlimit="10" stroke-linecap="round" stroke-linejoin="round"/>
<path d="M19.9995 19.9858C21.9623 19.9858 23.5537 18.3945 23.5537 16.4316C23.5537 14.4687 21.9623 12.8774 19.9995 12.8774C18.0365 12.8774 16.4453 14.4687 16.4453 16.4316C16.4453 18.3945 18.0365 19.9858 19.9995 19.9858Z" stroke="black" stroke-width="3" stroke-miterlimit="10" stroke-linecap="round" stroke-linejoin="round"/>
<path d="M25.9563 25.5134C25.1782 22.9637 22.7682 21.0522 19.9997 21.0522C17.2312 21.0522 14.8212 22.9637 14.043 25.5134" stroke="black" stroke-width="3" stroke-miterlimit="10" stroke-linecap="round" stroke-linejoin="round"/>
</g>
<defs>
<clipPath id="clip0_1753_8382">
<rect width="40" height="40" fill="white"/>
</clipPath>
</defs>
</svg>
