<svg width="192" height="192" viewBox="0 0 192 192" fill="none" xmlns="http://www.w3.org/2000/svg">
<rect width="192" height="192" fill="white"/>
<path d="M45.6882 63.3968C56.5121 44.3731 98.906 25.2387 118.75 18.0495C126.327 16.9435 153.387 34.64 155.551 43.4883C157.283 50.5669 153.567 58.9729 151.763 62.291C130.981 71.5816 125.966 59.157 125.786 51.7835C122.755 53.1107 118.028 50.1244 116.044 48.4654C112.58 71.0285 94.7568 88.8356 86.278 94.9187C123.945 94.0339 142.743 114.827 147.433 125.335C131.198 165.152 80.8661 173.263 61.3829 174C76.5365 165.152 85.7368 154.091 88.4428 149.667C22.9578 142.478 32.1582 87.1765 45.6882 63.3968Z" fill="url(#paint0_linear_3293_11461)"/>
<defs>
<linearGradient id="paint0_linear_3293_11461" x1="96" y1="18" x2="96" y2="174" gradientUnits="userSpaceOnUse">
<stop stop-color="#003EFB"/>
<stop offset="1" stop-color="#002FC0"/>
</linearGradient>
</defs>
</svg>
