<svg width="48" height="48" viewBox="0 0 48 48" fill="none" xmlns="http://www.w3.org/2000/svg">
<circle cx="24" cy="24" r="24" fill="#E0E0E0"/>
<path d="M20.2816 24.07C20.3957 24.0175 20.5185 23.9903 20.6426 23.9898C20.7667 23.9893 20.8897 24.0156 21.0042 24.0672C21.1187 24.1188 21.2225 24.1945 21.3093 24.29C21.3962 24.3855 21.4644 24.4988 21.5099 24.6231C21.5554 24.7475 21.5773 24.8804 21.5743 25.014C21.5713 25.1477 21.5434 25.2793 21.4924 25.4011C21.4413 25.523 21.3681 25.6325 21.277 25.7234C21.186 25.8142 21.0789 25.8845 20.9622 25.93C20.3415 26.1934 19.8088 26.6519 19.4333 27.2458C19.0579 27.8397 18.8571 28.5415 18.8571 29.26V31C18.8571 31.2652 18.955 31.5196 19.1291 31.7071C19.3033 31.8946 19.5394 32 19.7857 32H27.2143C27.4606 32 27.6967 31.8946 27.8709 31.7071C28.045 31.5196 28.1429 31.2652 28.1429 31V29.353C28.143 28.6115 27.9338 27.8874 27.5431 27.2768C27.1524 26.6662 26.5986 26.1979 25.9551 25.934C25.8377 25.8901 25.7297 25.8213 25.6374 25.7316C25.5451 25.6419 25.4705 25.5332 25.418 25.4119C25.3655 25.2905 25.3361 25.1591 25.3316 25.0253C25.3271 24.8916 25.3476 24.7582 25.3919 24.6331C25.4362 24.508 25.5033 24.3938 25.5893 24.2972C25.6753 24.2006 25.7785 24.1235 25.8927 24.0706C26.0069 24.0177 26.1298 23.9901 26.2541 23.9893C26.3783 23.9885 26.5015 24.0146 26.6163 24.066C27.6113 24.4742 28.4678 25.1983 29.072 26.1425C29.6763 27.0867 29.9999 28.2063 30 29.353V31C30 31.7956 29.7065 32.5587 29.1841 33.1213C28.6617 33.6839 27.9531 34 27.2143 34H19.7857C19.0469 34 18.3383 33.6839 17.8159 33.1213C17.2935 32.5587 17 31.7956 17 31V29.26C17.0001 28.1402 17.3132 27.0463 17.8984 26.1206C18.4837 25.195 19.3141 24.4805 20.2816 24.07ZM23.5 14C24.4851 14 25.4298 14.4214 26.1264 15.1716C26.823 15.9217 27.2143 16.9391 27.2143 18V20C27.2143 21.0609 26.823 22.0783 26.1264 22.8284C25.4298 23.5786 24.4851 24 23.5 24C22.5149 24 21.5702 23.5786 20.8736 22.8284C20.177 22.0783 19.7857 21.0609 19.7857 20V18C19.7857 16.9391 20.177 15.9217 20.8736 15.1716C21.5702 14.4214 22.5149 14 23.5 14V14ZM23.5 16C23.0075 16 22.5351 16.2107 22.1868 16.5858C21.8385 16.9609 21.6429 17.4696 21.6429 18V20C21.6429 20.5304 21.8385 21.0391 22.1868 21.4142C22.5351 21.7893 23.0075 22 23.5 22C23.9925 22 24.4649 21.7893 24.8132 21.4142C25.1615 21.0391 25.3571 20.5304 25.3571 20V18C25.3571 17.4696 25.1615 16.9609 24.8132 16.5858C24.4649 16.2107 23.9925 16 23.5 16Z" fill="#7A7A7A"/>
</svg>
