<svg width="40" height="40" viewBox="0 0 40 40" fill="none" xmlns="http://www.w3.org/2000/svg">
<path d="M36.4896 0.152641C38.5736 -0.575513 40.5755 1.4264 39.8474 3.51035L27.6942 38.2361C26.9045 40.4882 23.7662 40.6154 22.798 38.435L16.9337 25.2421L25.1876 16.9863C25.4594 16.6947 25.6073 16.309 25.6003 15.9104C25.5932 15.5119 25.4318 15.1317 25.1499 14.8498C24.8681 14.568 24.4878 14.4065 24.0893 14.3995C23.6907 14.3924 23.305 14.5404 23.0134 14.8121L14.7574 23.0659L1.56425 17.2017C-0.616151 16.2315 -0.486927 13.0953 1.76321 12.3056L36.4896 0.152641Z" fill="url(#paint0_linear_949_3860)"/>
<defs>
<linearGradient id="paint0_linear_949_3860" x1="10.8552" y1="26.3305" x2="51.6437" y2="-3.90978" gradientUnits="userSpaceOnUse">
<stop stop-color="#003EFB"/>
<stop offset="1" stop-color="#FE01B3"/>
</linearGradient>
</defs>
</svg>
