<svg width="28" height="29" viewBox="0 0 28 29" fill="none" xmlns="http://www.w3.org/2000/svg">
<path d="M18.0066 7.24132L8.5877 16.4083C8.31451 16.6651 8.09661 16.9723 7.9467 17.3119C7.7968 17.6515 7.71789 18.0168 7.71459 18.3864C7.71129 18.7561 7.78366 19.1226 7.92748 19.4647C8.0713 19.8069 8.28368 20.1177 8.55224 20.379C8.8208 20.6404 9.14016 20.8471 9.49168 20.9871C9.8432 21.1271 10.2198 21.1975 10.5996 21.1943C10.9794 21.1911 11.3547 21.1143 11.7037 20.9684C12.0527 20.8225 12.3683 20.6104 12.6321 20.3445L21.8051 11.1776C22.8472 10.1275 23.4238 8.72115 23.4107 7.26136C23.3977 5.80156 22.7961 4.40515 21.7354 3.37288C20.6748 2.34062 19.24 1.75508 17.7401 1.7424C16.2401 1.72971 14.7951 2.29089 13.7162 3.30506L4.54181 12.4706C2.93245 14.0369 2.02832 16.1613 2.02832 18.3764C2.02832 20.5915 2.93245 22.7159 4.54181 24.2822C6.15118 25.8485 8.33394 26.7284 10.6099 26.7284C12.8859 26.7284 15.0687 25.8485 16.678 24.2822L25.6265 15.5926" stroke="#CCCCCC" stroke-width="3" stroke-linecap="round" stroke-linejoin="round"/>
</svg>
